<svg width="150" height="200" viewBox="0 0 150 200" fill="none" xmlns="http://www.w3.org/2000/svg">
<g clip-path="url(#clip0_4588_57995)">
<rect width="150" height="200" transform="matrix(-1 0 0 1 150 0)" fill="#BABABA"/>
<circle cx="232.411" cy="232.411" r="232.411" transform="matrix(-1 0 0 1 405.794 -318.148)" fill="url(#paint0_linear_4588_57995)"/>
<path d="M70.2857 -4.95428L52.2171 -3.89143L41.9429 2.84L34.5 18L32 30.0059L17.5 114.506L-12 186.006V224.006L64.9714 89.9943V79.3657L43.4129 24.5217L69.5212 33.6269L76.0848 42.5611V47.0282L78.1732 40.1786L85.5 38.0059L90.4054 44.6457L83.5435 54.7711L88.0186 69.3636L92.1955 85.7429L166.5 195.506L108.5 23.5059L99 5.5L85.5 -9.5L67.7311 -17L70.2857 -4.95428Z" fill="#1E1E1E"/>
<path d="M35.9198 60.5L39.5 46.5L35 38L35.9198 27L49 15.5L71.4423 33.7894L76.4747 42.471V45.1653L77.6588 40.0761L86 37L90.3877 44.5665L84.1712 54.4456C86.9341 64.4245 92.3414 84.502 91.8678 84.981C91.3941 85.46 73.7118 101.745 64.9299 109.828V79.293L46.2806 83.1848L43.0243 72.1082C43.0243 72.1082 41.7416 65.5222 41.2482 63.1272L35.9198 60.5Z" fill="#EDEDED"/>
<circle cx="3.89714" cy="3.89714" r="3.89714" transform="matrix(-1 0 0 1 66.3887 47.4741)" fill="black"/>
<path d="M46.2968 35.6933L45.1313 39.68C49.737 36.4914 58.9126 34.7005 59.6996 34.3642C62.0305 33.368 50.4456 32.5942 46.2968 35.6933Z" fill="#1E1E1E"/>
<path d="M51.0984 47.466C51.0984 47.6418 50.8001 44.9791 50.8001 44.3931C51.0965 44.3931 52.4006 43.8658 55.246 43.5142C58.0914 43.1626 61.0257 41.9028 62.1372 41.0972C62.0631 41.3169 61.5592 42.064 60.1365 43.2945C58.3582 44.8326 51.0984 47.2463 51.0984 47.466Z" fill="#1E1E1E"/>
<path d="M91.5 76L92.0169 85.0044L142.914 124.751L193 390L-52.8909 409.554L-69.6571 365.922L27.3473 119.073L64.7719 89.786V110.108L69.8616 105.326V97.8549L91.5 76Z" fill="url(#paint1_linear_4588_57995)"/>
<path d="M46.1587 67.7182C45.5571 67.0996 43.2894 67.3068 42.2307 67.4877L40.5 69L42.5 71L42.4105 73.783L52.4191 71.34C48.4494 69.8768 46.7604 68.3368 46.1587 67.7182Z" fill="black"/>
</g>
<defs>
<linearGradient id="paint0_linear_4588_57995" x1="408.145" y1="356.834" x2="295.461" y2="273.997" gradientUnits="userSpaceOnUse">
<stop stop-color="#9E9E9E"/>
<stop offset="1" stop-color="#272727"/>
</linearGradient>
<linearGradient id="paint1_linear_4588_57995" x1="106.687" y1="98.1538" x2="-18.9567" y2="427.041" gradientUnits="userSpaceOnUse">
<stop stop-color="#1E1E1E"/>
<stop offset="1" stop-color="#D5D5D5"/>
</linearGradient>
<clipPath id="clip0_4588_57995">
<rect width="150" height="200" fill="white" transform="matrix(-1 0 0 1 150 0)"/>
</clipPath>
</defs>
</svg>
