<svg width="437" height="435" viewBox="0 0 437 435" fill="none" xmlns="http://www.w3.org/2000/svg">
<mask id="mask0_4503_16027" style="mask-type:alpha" maskUnits="userSpaceOnUse" x="88" y="118" width="274" height="229">
<path d="M357.3 197.726C376.988 254.935 332.477 311.912 261.757 336.251C191.036 360.59 120.886 343.075 98.8858 279.141C97.0433 273.787 91.169 256.701 89.4331 251.657C81.216 204.518 126.289 151.496 188.916 129.36C188.916 129.36 97.2813 193.074 115.137 242.819C133.106 292.878 195.157 300.127 245.382 282.626C295.376 265.205 339.042 221.629 322.703 171.27C306.15 120.25 192.279 128.207 192.279 128.207C255.081 107.341 320.146 122.893 345.45 163.617C347.198 168.367 354.628 189.962 356.968 196.76L357.3 197.726Z" fill="#D9D9D9"/>
</mask>
<g mask="url(#mask0_4503_16027)">
<path d="M357.3 197.726C376.988 254.935 332.477 311.912 261.757 336.251C191.036 360.59 120.886 343.075 98.8858 279.141C97.0433 273.787 91.169 256.701 89.4331 251.657C84.2385 203.851 126.289 151.496 188.916 129.36C188.916 129.36 97.2813 193.074 115.137 242.819C133.106 292.878 195.157 300.127 245.382 282.626C295.376 265.205 339.042 221.629 322.703 171.27C306.15 120.25 192.279 128.207 192.279 128.207C255.081 107.341 320.146 122.893 345.45 163.617C347.198 168.367 354.628 189.962 356.968 196.76L357.3 197.726Z" fill="url(#paint0_linear_4503_16027)"/>
<circle cx="247.468" cy="236.815" r="397.494" transform="rotate(-15.5758 247.468 236.815)" fill="url(#paint1_radial_4503_16027)" fill-opacity="0.25" style="mix-blend-mode:hard-light"/>
</g>
<path d="M89.624 252.234C71.6705 200.068 114.447 138.048 185.167 113.709C255.888 89.3703 327.772 111.929 345.725 164.095C363.679 216.261 320.903 278.281 250.182 302.62C179.462 326.959 107.578 304.4 89.624 252.234ZM221.183 232.904L253.292 196.856L211.236 190.838L181.316 225.633L221.183 232.904Z" fill="url(#paint2_linear_4503_16027)"/>
<path d="M205.439 177.545L166.178 223.243L181.333 225.647L211.206 190.816L253.309 196.869L264.957 184.902L205.439 177.545Z" fill="#8AABEA"/>
<path d="M97.9448 247.318C81.4611 199.422 120.735 142.48 185.666 120.133C250.597 97.7866 316.597 118.498 333.081 166.393C349.184 213.181 312.077 268.603 249.822 291.973C308.543 269.821 343.514 217.499 328.309 173.317C312.722 128.026 250.312 108.441 188.913 129.572C127.513 150.703 90.3744 204.548 105.961 249.839C121.149 293.97 180.793 313.694 240.64 295.126C177.26 314.906 114.029 294.054 97.9448 247.318Z" fill="#8AABEA"/>
<defs>
<linearGradient id="paint0_linear_4503_16027" x1="113.504" y1="306.758" x2="371.784" y2="237.949" gradientUnits="userSpaceOnUse">
<stop stop-color="white"/>
<stop offset="0.314232" stop-color="#C7D2E8"/>
<stop offset="0.691969" stop-color="#9BB7ED"/>
<stop offset="1" stop-color="white"/>
</linearGradient>
<radialGradient id="paint1_radial_4503_16027" cx="0" cy="0" r="1" gradientUnits="userSpaceOnUse" gradientTransform="translate(230.117 271.317) rotate(87.2634) scale(363.407)">
<stop offset="0.23" stop-color="#284ACA"/>
<stop offset="0.540013" stop-color="#FF4752" stop-opacity="0.7"/>
</radialGradient>
<linearGradient id="paint2_linear_4503_16027" x1="185.125" y1="130.102" x2="252.246" y2="288.387" gradientUnits="userSpaceOnUse">
<stop stop-color="#C7D3ED"/>
<stop offset="0.577807" stop-color="white"/>
</linearGradient>
</defs>
</svg>
