<svg width="375" height="699" viewBox="0 0 375 699" fill="none" xmlns="http://www.w3.org/2000/svg">
<path d="M106.884 101.543L115.554 97.8092L114.54 105.654L110.025 112.708L104.685 114.378L103.112 113.339L102.564 107.069L106.884 101.543Z" fill="#BBC7F5"/>
<path d="M225.773 37.9026L237.342 32.36L236.393 43.0673L230.646 52.8924L223.485 55.4511L221.293 54.1258L220.208 45.6414L225.773 37.9026Z" fill="#4363DA"/>
<path d="M353.826 176.567L366.69 184.484L355.486 190.373L342.096 190.95L334.997 185.493L334.911 182.479L342.617 175.994L353.826 176.567Z" fill="#4363DA"/>
<path d="M106.185 0.730749L110.558 -6.95283L114.227 -0.517639L114.834 7.30297L111.784 11.5653L110.023 11.676L106.075 7.29884L106.185 0.730749Z" fill="#4363DA"/>
<path d="M245.603 150.916L255.962 149.522L252.539 157.584L245.62 163.759L239.426 163.945L238.06 162.368L239.347 155.519L245.603 150.916Z" fill="#4363DA"/>
<path d="M324.824 331.784L333.493 328.05L332.48 335.895L327.965 342.949L322.624 344.619L321.052 343.58L320.504 337.31L324.824 331.784Z" fill="#BBC7F5"/>
<path d="M346.322 287.019L357.891 281.476L356.942 292.183L351.195 302.009L344.034 304.567L341.842 303.242L340.756 294.758L346.322 287.019Z" fill="#4363DA"/>
<path d="M370.682 98.3464L379.483 97.5137L376.322 104.213L370.268 109.201L365.027 109.152L363.925 107.774L365.241 102.028L370.682 98.3464Z" fill="#4363DA"/>
<path d="M342.114 30.115L342.875 24.1837L338.275 26.1699L334.767 30.1506L334.682 33.6945L335.589 34.4707L339.503 33.7102L342.114 30.115Z" fill="#BBC7F5"/>
<path d="M182.815 681.45L194.384 675.907L193.435 686.615L187.688 696.44L180.527 698.998L178.335 697.673L177.25 689.189L182.815 681.45Z" fill="#4363DA"/>
</svg>
