<svg width="868" height="646" viewBox="0 0 868 646" fill="none" xmlns="http://www.w3.org/2000/svg">
<path d="M7.71731 313.101L1.447 303.936L10.7319 303.333L19.8962 306.951L23.0313 312.739L22.1873 314.789L15.0729 316.839L7.71731 313.101Z" fill="#4363DA"/>
<path d="M28.6622 154.675L39.0213 153.281L35.599 161.343L28.6791 167.517L22.4857 167.704L21.1193 166.127L22.4064 159.278L28.6622 154.675Z" fill="#4363DA"/>
<path d="M277.884 322.543L286.554 318.809L285.54 326.654L281.025 333.708L275.685 335.378L274.112 334.339L273.564 328.069L277.884 322.543Z" fill="#BBC7F5"/>
<path d="M254.65 398.021L266.219 392.478L265.27 403.185L259.523 413.011L252.362 415.569L250.17 414.244L249.085 405.76L254.65 398.021Z" fill="#4363DA"/>
<path d="M580.22 441.84L586.355 453.106L575.613 452.713L565.503 447.484L562.576 440.465L563.786 438.208L572.202 436.684L580.22 441.84Z" fill="#4363DA"/>
<path d="M396.773 258.903L408.342 253.36L407.393 264.067L401.646 273.892L394.485 276.451L392.293 275.126L391.208 266.641L396.773 258.903Z" fill="#4363DA"/>
<path d="M420.794 105.538L432.364 99.9957L431.414 110.703L425.668 120.528L418.506 123.087L416.315 121.761L415.229 113.277L420.794 105.538Z" fill="#4363DA"/>
<path d="M455.039 423.217L467.903 431.134L456.7 437.022L443.31 437.6L436.21 432.143L436.124 429.128L443.83 422.643L455.039 423.217Z" fill="#4363DA"/>
<path d="M354.019 61.8645L353.921 56.6341L357.733 58.7984L360.405 62.5933L360.143 65.6834L359.28 66.2722L355.948 65.2391L354.019 61.8645Z" fill="#4363DA"/>
<path d="M467.234 -0.727259L467.135 -5.95768L470.947 -3.79337L473.62 0.00154877L473.357 3.09156L472.495 3.68038L469.163 2.64727L467.234 -0.727259Z" fill="#4363DA"/>
<path d="M596.743 237.398L605.544 236.565L602.383 243.265L596.329 248.253L591.089 248.204L589.987 246.825L591.303 241.08L596.743 237.398Z" fill="#4363DA"/>
<path d="M543.996 101.488L552.797 100.655L549.636 107.355L543.582 112.342L538.342 112.294L537.239 110.915L538.556 105.169L543.996 101.488Z" fill="#4363DA"/>
<path d="M277.185 221.731L281.558 214.047L285.227 220.482L285.834 228.303L282.784 232.565L281.023 232.676L277.075 228.299L277.185 221.731Z" fill="#4363DA"/>
<path d="M264.546 34.9988L265.307 29.0674L260.707 31.0537L257.198 35.0343L257.113 38.5783L258.021 39.3545L261.935 38.594L264.546 34.9988Z" fill="#BBC7F5"/>
<path d="M642.733 270.053L651.05 261.205L653.872 270.981L652.159 281.617L646.712 286.324L644.325 285.903L640.467 278.786L642.733 270.053Z" fill="#BBC7F5"/>
<path d="M593.658 543.341L587.387 534.177L596.672 533.574L605.837 537.191L608.972 542.979L608.128 545.029L601.013 547.079L593.658 543.341Z" fill="#4363DA"/>
<path d="M416.603 371.916L426.962 370.522L423.539 378.584L416.62 384.759L410.426 384.945L409.06 383.368L410.347 376.519L416.603 371.916Z" fill="#4363DA"/>
<path d="M495.824 552.784L504.493 549.05L503.48 556.895L498.965 563.949L493.624 565.619L492.052 564.58L491.504 558.31L495.824 552.784Z" fill="#BBC7F5"/>
<path d="M572.199 625.137L583.768 619.594L582.819 630.302L577.072 640.127L569.91 642.685L567.719 641.36L566.633 632.876L572.199 625.137Z" fill="#4363DA"/>
<path d="M517.322 508.019L528.891 502.476L527.942 513.183L522.195 523.009L515.034 525.567L512.842 524.242L511.756 515.758L517.322 508.019Z" fill="#4363DA"/>
<path d="M814.343 91.6545L825.912 86.1119L824.963 96.8192L819.216 106.644L812.055 109.203L809.863 107.878L808.778 99.3933L814.343 91.6545Z" fill="#4363DA"/>
<path d="M500.57 187.981L500.471 182.75L504.283 184.915L506.956 188.71L506.693 191.8L505.831 192.388L502.499 191.355L500.57 187.981Z" fill="#4363DA"/>
<path d="M860.783 251.389L860.684 246.159L864.496 248.323L867.169 252.118L866.906 255.208L866.044 255.797L862.712 254.763L860.783 251.389Z" fill="#4363DA"/>
<path d="M541.682 319.346L550.483 318.514L547.322 325.213L541.268 330.201L536.027 330.152L534.925 328.774L536.241 323.028L541.682 319.346Z" fill="#4363DA"/>
<path d="M812.543 97.6042L821.344 96.7715L818.183 103.471L812.129 108.459L806.889 108.41L805.786 107.031L807.102 101.286L812.543 97.6042Z" fill="#4363DA"/>
<path d="M606.734 173.847L611.107 166.163L614.776 172.599L615.383 180.419L612.333 184.681L610.572 184.792L606.624 180.415L606.734 173.847Z" fill="#4363DA"/>
<path d="M513.114 251.115L513.875 245.184L509.275 247.17L505.767 251.151L505.682 254.694L506.589 255.471L510.503 254.71L513.114 251.115Z" fill="#BBC7F5"/>
</svg>
