<svg width="249" height="247" viewBox="0 0 249 247" fill="none" xmlns="http://www.w3.org/2000/svg">
<mask id="mask0_4503_16015" style="mask-type:alpha" maskUnits="userSpaceOnUse" x="41" y="44" width="183" height="175">
<path d="M209.894 75.6634C237.079 108.047 222.327 156.373 182.296 189.979C142.265 223.585 92.1139 229.747 61.7345 193.556C59.1904 190.526 51.0751 180.853 48.6782 177.998C31.5003 149.308 47.6102 103.42 82.9133 73.2802C82.9133 73.2802 39.111 137.815 63.2299 165.788C87.501 193.938 129.796 183.111 158.171 159.104C186.416 135.206 203.976 95.833 180.693 67.0791C157.104 37.9474 84.8182 71.6849 84.8182 71.6849C120.555 42.3291 166.897 36.1627 193.613 56.3842C195.944 59.0448 206.204 71.2682 209.434 75.1164L209.894 75.6634Z" fill="#D9D9D9"/>
</mask>
<g mask="url(#mask0_4503_16015)">
<path d="M209.894 75.6634C237.079 108.047 222.327 156.373 182.296 189.979C142.265 223.585 92.1139 229.747 61.7345 193.556C59.1904 190.526 51.0751 180.853 48.6782 177.998C33.3048 148.115 47.6102 103.42 82.9133 73.2802C82.9133 73.2802 39.111 137.815 63.2299 165.788C87.501 193.938 129.796 183.111 158.171 159.104C186.416 135.206 203.976 95.833 180.693 67.0791C157.104 37.9474 84.8182 71.6849 84.8182 71.6849C120.555 42.3291 166.897 36.1627 193.613 56.3842C195.944 59.0448 206.204 71.2682 209.434 75.1164L209.894 75.6634Z" fill="url(#paint0_linear_4503_16015)"/>
<circle cx="148.031" cy="128.688" r="277.785" transform="rotate(-36.5983 148.031 128.688)" fill="url(#paint1_radial_4503_16015)" fill-opacity="0.25" style="mix-blend-mode:hard-light"/>
</g>
<path d="M48.939 178.328C24.1496 148.8 36.5056 97.6187 76.5365 64.0122C116.567 30.4058 169.115 27.1001 193.904 56.6284C218.693 86.1568 206.337 137.337 166.306 170.943C126.276 204.55 73.7283 207.856 48.939 178.328ZM129.937 132.734L141.845 101.17L112.902 107.787L102.108 137.986L129.937 132.734Z" fill="url(#paint2_linear_4503_16015)"/>
<path d="M105.771 100.559L91.6168 140.212L102.105 137.981L112.86 107.771L141.842 101.164L146.44 90.4374L105.771 100.559Z" fill="#8AABEA"/>
<path d="M53.1266 173.031C30.3667 145.92 41.7106 98.9297 78.4644 68.0744C115.218 37.2191 163.464 34.1839 186.224 61.2949C207.938 87.1602 198.61 131.12 165.79 161.899C196.619 132.806 205.336 91.3969 184.859 67.0052C163.337 41.3688 117.716 44.239 82.9612 73.4159C48.2064 102.593 37.4791 147.029 59.0012 172.665C79.4941 197.075 121.836 195.64 155.842 170.259C119.829 197.32 74.8594 198.919 53.1266 173.031Z" fill="#8AABEA"/>
<defs>
<linearGradient id="paint0_linear_4503_16015" x1="78.1939" y1="207.907" x2="229.425" y2="98.2709" gradientUnits="userSpaceOnUse">
<stop stop-color="white"/>
<stop offset="0.314232" stop-color="#C7D2E8"/>
<stop offset="0.691969" stop-color="#9BB7ED"/>
<stop offset="1" stop-color="white"/>
</linearGradient>
<radialGradient id="paint1_radial_4503_16015" cx="0" cy="0" r="1" gradientUnits="userSpaceOnUse" gradientTransform="translate(135.905 152.799) rotate(87.2634) scale(253.963)">
<stop offset="0.23" stop-color="#284ACA"/>
<stop offset="0.540013" stop-color="#FF4752" stop-opacity="0.7"/>
</radialGradient>
<linearGradient id="paint2_linear_4503_16015" x1="80.6184" y1="74.7161" x2="164.084" y2="161.142" gradientUnits="userSpaceOnUse">
<stop stop-color="#C7D3ED"/>
<stop offset="0.577807" stop-color="white"/>
</linearGradient>
</defs>
</svg>
