<svg width="794" height="919" viewBox="0 0 794 919" fill="none" xmlns="http://www.w3.org/2000/svg">
<path d="M786.136 586.101L792.407 576.936L783.122 576.333L773.957 579.951L770.822 585.739L771.666 587.789L778.781 589.839L786.136 586.101Z" fill="#4363DA"/>
<path d="M765.192 427.675L754.832 426.281L758.255 434.343L765.175 440.518L771.368 440.705L772.734 439.127L771.447 432.278L765.192 427.675Z" fill="#4363DA"/>
<path d="M515.969 595.544L507.299 591.81L508.313 599.654L512.828 606.708L518.169 608.378L519.741 607.339L520.289 601.069L515.969 595.544Z" fill="#BBC7F5"/>
<path d="M539.204 671.021L527.635 665.478L528.584 676.185L534.331 686.011L541.492 688.569L543.684 687.244L544.769 678.76L539.204 671.021Z" fill="#4363DA"/>
<path d="M213.634 714.84L207.498 726.106L218.24 725.713L228.351 720.484L231.277 713.465L230.068 711.208L221.651 709.684L213.634 714.84Z" fill="#4363DA"/>
<path d="M397.081 531.903L385.512 526.36L386.461 537.067L392.208 546.892L399.369 549.451L401.561 548.126L402.646 539.641L397.081 531.903Z" fill="#4363DA"/>
<path d="M373.06 112.538L361.49 106.996L362.44 117.703L368.186 127.528L375.348 130.087L377.539 128.761L378.625 120.277L373.06 112.538Z" fill="#4363DA"/>
<path d="M338.814 696.217L325.95 704.134L337.154 710.022L350.544 710.6L357.643 705.143L357.729 702.128L350.023 695.643L338.814 696.217Z" fill="#4363DA"/>
<path d="M439.834 334.865L439.932 329.634L436.12 331.798L433.448 335.593L433.71 338.683L434.573 339.272L437.905 338.239L439.834 334.865Z" fill="#4363DA"/>
<path d="M326.619 6.27274L326.718 1.04232L322.906 3.20663L320.233 7.00155L320.496 10.0916L321.358 10.6804L324.69 9.64727L326.619 6.27274Z" fill="#4363DA"/>
<path d="M197.11 510.399L188.309 509.566L191.47 516.265L197.524 521.253L202.765 521.204L203.867 519.826L202.551 514.08L197.11 510.399Z" fill="#4363DA"/>
<path d="M249.858 108.488L241.057 107.655L244.218 114.355L250.272 119.342L255.512 119.294L256.615 117.915L255.298 112.169L249.858 108.488Z" fill="#4363DA"/>
<path d="M516.669 228.731L512.296 221.047L508.627 227.482L508.02 235.303L511.07 239.565L512.831 239.676L516.779 235.299L516.669 228.731Z" fill="#4363DA"/>
<path d="M529.308 307.999L528.547 302.067L533.147 304.054L536.656 308.034L536.741 311.578L535.833 312.354L531.919 311.594L529.308 307.999Z" fill="#BBC7F5"/>
<path d="M151.12 543.053L142.803 534.206L139.981 543.981L141.695 554.618L147.141 559.324L149.528 558.904L153.387 551.786L151.12 543.053Z" fill="#BBC7F5"/>
<path d="M200.196 816.341L206.466 807.177L197.181 806.574L188.017 810.191L184.882 815.979L185.726 818.029L192.84 820.079L200.196 816.341Z" fill="#4363DA"/>
<path d="M377.25 644.916L366.891 643.522L370.314 651.584L377.233 657.759L383.427 657.945L384.793 656.368L383.506 649.519L377.25 644.916Z" fill="#4363DA"/>
<path d="M298.03 825.784L289.36 822.05L290.374 829.895L294.889 836.949L300.229 838.619L301.802 837.58L302.35 831.31L298.03 825.784Z" fill="#BBC7F5"/>
<path d="M221.654 898.137L210.085 892.594L211.034 903.302L216.781 913.127L223.943 915.685L226.134 914.36L227.22 905.876L221.654 898.137Z" fill="#4363DA"/>
<path d="M276.532 781.019L264.963 775.476L265.912 786.183L271.659 796.009L278.82 798.567L281.012 797.242L282.097 788.758L276.532 781.019Z" fill="#4363DA"/>
<path d="M293.284 460.981L293.383 455.75L289.571 457.915L286.898 461.71L287.161 464.8L288.023 465.388L291.355 464.355L293.284 460.981Z" fill="#4363DA"/>
<path d="M252.171 592.346L243.37 591.514L246.531 598.213L252.585 603.201L257.826 603.152L258.928 601.774L257.612 596.028L252.171 592.346Z" fill="#4363DA"/>
<path d="M187.119 446.847L182.746 439.163L179.077 445.599L178.47 453.419L181.52 457.681L183.281 457.792L187.229 453.415L187.119 446.847Z" fill="#4363DA"/>
<path d="M280.739 524.115L279.978 518.184L284.579 520.17L288.087 524.151L288.172 527.694L287.265 528.471L283.351 527.71L280.739 524.115Z" fill="#BBC7F5"/>
</svg>
