<svg width="375" height="862" viewBox="0 0 375 862" fill="none" xmlns="http://www.w3.org/2000/svg">
<g clip-path="url(#clip0_4584_35549)">
<path d="M357.968 307.286L349.299 303.552L350.313 311.396L354.827 318.451L360.168 320.121L361.74 319.082L362.288 312.812L357.968 307.286Z" fill="#BBC7F5"/>
<path d="M381.204 382.763L369.634 377.22L370.584 387.928L376.33 397.753L383.492 400.311L385.683 398.986L386.769 390.502L381.204 382.763Z" fill="#4363DA"/>
<path d="M27.9678 482.23L21.8323 493.496L32.5744 493.104L42.6846 487.875L45.6114 480.856L44.4016 478.599L35.985 477.074L27.9678 482.23Z" fill="#4363DA"/>
<path d="M239.081 243.645L227.511 238.102L228.461 248.809L234.207 258.635L241.369 261.193L243.56 259.868L244.646 251.384L239.081 243.645Z" fill="#4363DA"/>
<path d="M53.0191 348.192L41.4498 342.65L42.3992 353.357L48.1459 363.182L55.3073 365.741L57.4989 364.415L58.5844 355.931L53.0191 348.192Z" fill="#4363DA"/>
<path d="M196.861 481.567L183.997 489.484L195.201 495.373L208.591 495.95L215.69 490.493L215.776 487.479L208.07 480.994L196.861 481.567Z" fill="#4363DA"/>
<path d="M281.833 46.6067L281.932 41.3763L278.12 43.5406L275.447 47.3355L275.71 50.4255L276.573 51.0144L279.904 49.9813L281.833 46.6067Z" fill="#4363DA"/>
<path d="M227.07 542.273L227.169 537.042L223.357 539.207L220.684 543.002L220.947 546.092L221.809 546.68L225.141 545.647L227.07 542.273Z" fill="#4363DA"/>
<path d="M168.619 395.015L168.717 389.785L164.905 391.949L162.232 395.744L162.495 398.834L163.358 399.423L166.689 398.389L168.619 395.015Z" fill="#4363DA"/>
<path d="M39.1101 222.141L30.3088 221.308L33.4699 228.008L39.524 232.995L44.7645 232.947L45.8668 231.568L44.5506 225.822L39.1101 222.141Z" fill="#4363DA"/>
<path d="M46.2 474.141L37.3986 473.308L40.5597 480.008L46.6139 484.995L51.8544 484.947L52.9566 483.568L51.6405 477.822L46.2 474.141Z" fill="#4363DA"/>
<path d="M353.587 778.215L349.215 770.531L345.545 776.966L344.939 784.787L347.988 789.049L349.75 789.16L353.698 784.783L353.587 778.215Z" fill="#4363DA"/>
<path d="M371.308 19.741L370.547 13.8096L375.147 15.7959L378.655 19.7765L378.74 23.3205L377.833 24.0966L373.919 23.3362L371.308 19.741Z" fill="#BBC7F5"/>
<path d="M38.2434 100.881L44.5137 91.7171L35.2288 91.1142L26.0645 94.7316L22.9293 100.52L23.7734 102.57L30.8878 104.619L38.2434 100.881Z" fill="#4363DA"/>
<path d="M250.852 193.54L243.54 186.071L241.281 194.533L242.941 203.657L247.71 207.613L249.758 207.21L252.955 201.017L250.852 193.54Z" fill="#4363DA"/>
<path d="M353.847 496.178L345.178 492.443L346.191 500.288L350.706 507.342L356.047 509.012L357.619 507.973L358.167 501.703L353.847 496.178Z" fill="#BBC7F5"/>
<path d="M19.0191 770.45L7.44982 764.907L8.39918 775.615L14.1459 785.44L21.3073 787.998L23.4989 786.673L24.5844 778.189L19.0191 770.45Z" fill="#4363DA"/>
<path d="M275.019 516.45L263.45 510.907L264.399 521.615L270.146 531.44L277.307 533.998L279.499 532.673L280.584 524.189L275.019 516.45Z" fill="#4363DA"/>
<path d="M135.284 172.723L135.382 167.493L131.57 169.657L128.897 173.452L129.16 176.542L130.023 177.131L133.354 176.097L135.284 172.723Z" fill="#4363DA"/>
<path d="M201.2 657.399L192.399 656.566L195.56 663.265L201.614 668.253L206.854 668.204L207.957 666.826L206.64 661.08L201.2 657.399Z" fill="#4363DA"/>
<path d="M29.1185 158.589L24.7459 150.906L21.0766 157.341L20.4699 165.161L23.5193 169.424L25.2808 169.534L29.2289 165.157L29.1185 158.589Z" fill="#4363DA"/>
<path d="M122.739 235.857L121.978 229.926L126.578 231.912L130.086 235.893L130.171 239.437L129.264 240.213L125.35 239.452L122.739 235.857Z" fill="#BBC7F5"/>
</g>
<defs>
<clipPath id="clip0_4584_35549">
<rect width="380" height="862" fill="white"/>
</clipPath>
</defs>
</svg>
