<svg width="458" height="462" viewBox="0 0 458 462" fill="none" xmlns="http://www.w3.org/2000/svg">
<mask id="mask0_4503_16003" style="mask-type:alpha" maskUnits="userSpaceOnUse" x="47" y="70" width="332" height="354">
<path d="M314.543 399.005C250.46 449.095 158.542 417.49 96.6206 338.274C34.6989 259.057 26.2209 162.226 97.837 106.25C103.834 101.563 122.975 86.6103 128.625 82.1939C184.936 51.0951 272.075 85.1474 327.649 155.042C327.649 155.042 206.52 66.4985 151.122 110.99C95.373 155.762 113.349 237.802 157.599 293.965C201.646 349.872 276.163 386.274 333.006 343.442C390.597 300.048 330.588 158.811 330.588 158.811C384.626 229.487 393.37 318.995 352.7 368.999C347.428 373.302 323.235 392.211 315.623 398.161L314.543 399.005Z" fill="#D9D9D9"/>
</mask>
<g mask="url(#mask0_4503_16003)">
<path d="M314.543 399.005C250.46 449.095 158.542 417.49 96.6206 338.274C34.6989 259.057 26.2209 162.226 97.837 106.25C103.834 101.563 122.975 86.6103 128.625 82.1939C187.107 54.6443 272.075 85.1474 327.649 155.042C327.649 155.042 206.52 66.4985 151.122 110.99C95.373 155.762 113.349 237.802 157.599 293.965C201.646 349.872 276.163 386.274 333.006 343.442C390.597 300.048 330.588 158.811 330.588 158.811C384.626 229.487 393.37 318.995 352.7 368.999C347.428 373.302 323.235 392.211 315.623 398.161L314.543 399.005Z" fill="url(#paint0_linear_4503_16003)"/>
<circle cx="216.748" cy="276.526" r="534.373" transform="rotate(55.4017 216.748 276.526)" fill="url(#paint1_radial_4503_16003)" fill-opacity="0.25" style="mix-blend-mode:hard-light"/>
</g>
<path d="M127.965 82.703C186.398 37.0272 283.965 64.217 345.887 143.433C407.809 222.65 410.636 323.896 352.203 369.572C293.77 415.248 196.203 388.057 134.281 308.841C72.3597 229.624 69.5319 128.379 127.965 82.703ZM210.195 241.465L270.079 266.477L259.299 210.39L201.967 187.61L210.195 241.465Z" fill="url(#paint2_linear_4503_16003)"/>
<path d="M273.657 197.17L198.374 167.296L201.959 187.611L259.317 210.315L270.072 266.478L290.386 276.038L273.657 197.17Z" fill="#8AABEA"/>
<path d="M137.854 91.1255C191.504 49.1889 281.084 74.1528 337.936 146.884C394.789 219.616 397.386 312.574 343.736 354.51C291.696 395.188 205.852 372.92 148.86 305.168C202.753 368.97 283.73 389.885 332.852 351.488C383.584 311.832 381.128 223.931 327.368 155.155C273.607 86.379 188.9 62.7727 138.169 102.428C89.024 140.843 89.7908 224.533 138.759 292.252C86.6982 220.57 85.7897 131.823 137.854 91.1255Z" fill="#8AABEA"/>
<defs>
<linearGradient id="paint0_linear_4503_16003" x1="69.1427" y1="136.931" x2="269.768" y2="435.038" gradientUnits="userSpaceOnUse">
<stop stop-color="white"/>
<stop offset="0.314232" stop-color="#C7D2E8"/>
<stop offset="0.691969" stop-color="#9BB7ED"/>
<stop offset="1" stop-color="white"/>
</linearGradient>
<radialGradient id="paint1_radial_4503_16003" cx="0" cy="0" r="1" gradientUnits="userSpaceOnUse" gradientTransform="translate(193.422 322.908) rotate(87.2634) scale(488.548)">
<stop offset="0.23" stop-color="#284ACA"/>
<stop offset="0.540013" stop-color="#FF4752" stop-opacity="0.7"/>
</radialGradient>
<linearGradient id="paint2_linear_4503_16003" x1="325.035" y1="150.563" x2="153.275" y2="305.227" gradientUnits="userSpaceOnUse">
<stop stop-color="#C7D3ED"/>
<stop offset="0.577807" stop-color="white"/>
</linearGradient>
</defs>
</svg>
