<svg width="696" height="900" viewBox="0 0 696 900" fill="none" xmlns="http://www.w3.org/2000/svg">
<path d="M105.885 509.544L114.554 505.81L113.54 513.654L109.026 520.708L103.685 522.378L102.113 521.339L101.565 515.069L105.885 509.544Z" fill="#BBC7F5"/>
<path d="M82.6494 585.021L94.2186 579.478L93.2693 590.186L87.5226 600.011L80.3612 602.569L78.1696 601.244L77.084 592.76L82.6494 585.021Z" fill="#4363DA"/>
<path d="M408.22 628.84L414.355 640.106L403.613 639.714L393.503 634.484L390.576 627.466L391.786 625.208L400.202 623.684L408.22 628.84Z" fill="#4363DA"/>
<path d="M224.772 445.903L236.342 440.36L235.392 451.068L229.646 460.893L222.484 463.451L220.293 462.126L219.207 453.642L224.772 445.903Z" fill="#4363DA"/>
<path d="M248.794 26.5384L260.363 20.9958L259.414 31.7031L253.667 41.5283L246.506 44.0869L244.314 42.7616L243.229 34.2772L248.794 26.5384Z" fill="#4363DA"/>
<path d="M283.039 610.217L295.903 618.134L284.7 624.022L271.31 624.6L264.21 619.143L264.124 616.129L271.83 609.643L283.039 610.217Z" fill="#4363DA"/>
<path d="M182.02 248.865L181.921 243.634L185.733 245.799L188.406 249.594L188.143 252.684L187.28 253.272L183.949 252.239L182.02 248.865Z" fill="#4363DA"/>
<path d="M424.743 424.399L433.544 423.566L430.383 430.265L424.329 435.253L419.089 435.204L417.986 433.826L419.303 428.08L424.743 424.399Z" fill="#4363DA"/>
<path d="M371.996 22.4882L380.797 21.6554L377.636 28.3549L371.582 33.3426L366.341 33.2939L365.239 31.9154L366.555 26.1696L371.996 22.4882Z" fill="#4363DA"/>
<path d="M105.185 142.731L109.557 135.047L113.227 141.482L113.833 149.303L110.784 153.565L109.022 153.676L105.074 149.299L105.185 142.731Z" fill="#4363DA"/>
<path d="M92.5454 221.999L93.3065 216.068L88.7062 218.054L85.198 222.035L85.1129 225.579L86.0201 226.355L89.9341 225.594L92.5454 221.999Z" fill="#BBC7F5"/>
<path d="M470.733 457.053L479.05 448.206L481.872 457.981L480.159 468.618L474.713 473.324L472.325 472.904L468.467 465.786L470.733 457.053Z" fill="#BBC7F5"/>
<path d="M421.658 730.341L415.387 721.177L424.672 720.574L433.837 724.191L436.972 729.979L436.128 732.029L429.013 734.079L421.658 730.341Z" fill="#4363DA"/>
<path d="M244.603 558.916L254.962 557.522L251.54 565.584L244.62 571.759L238.427 571.946L237.06 570.368L238.347 563.519L244.603 558.916Z" fill="#4363DA"/>
<path d="M323.824 739.785L332.493 736.051L331.48 743.895L326.965 750.949L321.624 752.619L320.052 751.58L319.504 745.31L323.824 739.785Z" fill="#BBC7F5"/>
<path d="M400.199 812.137L411.768 806.595L410.819 817.302L405.072 827.127L397.911 829.686L395.719 828.36L394.634 819.876L400.199 812.137Z" fill="#4363DA"/>
<path d="M345.322 695.019L356.891 689.476L355.942 700.184L350.195 710.009L343.034 712.567L340.842 711.242L339.756 702.758L345.322 695.019Z" fill="#4363DA"/>
<path d="M642.343 278.655L653.912 273.112L652.963 283.819L647.216 293.645L640.055 296.203L637.863 294.878L636.777 286.394L642.343 278.655Z" fill="#4363DA"/>
<path d="M328.569 374.981L328.471 369.751L332.283 371.915L334.956 375.71L334.693 378.8L333.83 379.389L330.499 378.356L328.569 374.981Z" fill="#4363DA"/>
<path d="M688.783 172.389L688.684 167.159L692.496 169.323L695.169 173.118L694.906 176.208L694.044 176.797L690.712 175.764L688.783 172.389Z" fill="#4363DA"/>
<path d="M369.682 506.347L378.483 505.514L375.322 512.213L369.268 517.201L364.028 517.152L362.925 515.774L364.242 510.028L369.682 506.347Z" fill="#4363DA"/>
<path d="M640.543 284.604L649.345 283.772L646.184 290.471L640.13 295.459L634.889 295.41L633.787 294.032L635.103 288.286L640.543 284.604Z" fill="#4363DA"/>
<path d="M434.735 360.847L439.107 353.164L442.776 359.599L443.383 367.419L440.334 371.682L438.572 371.792L434.624 367.415L434.735 360.847Z" fill="#4363DA"/>
<path d="M341.114 438.115L341.875 432.184L337.275 434.17L333.767 438.151L333.682 441.695L334.589 442.471L338.503 441.71L341.114 438.115Z" fill="#BBC7F5"/>
</svg>
